<svg width="1440" height="5737" viewBox="0 0 1440 5737" fill="none" xmlns="http://www.w3.org/2000/svg">
<g clip-path="url(#clip0_2_2)">
<rect width="1440" height="5737" fill="white"/>
<path d="M341 332C291.5 223 258.5 179.5 191.5 179.5" stroke="#D0711F" stroke-width="8" stroke-dasharray="16 16"/>
<circle cx="188" cy="175" r="19" fill="white" stroke="#D0711F" stroke-width="8"/>
<rect y="5075" width="1440" height="662" fill="#1E1E1E"/>
<rect x="720" width="720" height="5075" fill="#1E1E1E"/>
<rect x="238" y="4649" width="1202" height="1088" fill="#1E1E1E"/>
<ellipse cx="238.5" cy="4651.5" rx="481.5" ry="423.5" fill="white"/>
<path d="M418 634C454.833 734.167 603.3 916.6 902.5 845" stroke="#D0711F" stroke-width="8" stroke-dasharray="16 16"/>
<path d="M1222 1030.5C1434 992.499 1470.5 798.498 1280 823.497" stroke="#D0711F" stroke-width="8" stroke-dasharray="16 16"/>
<path d="M915.5 2540C915.5 2417.5 793.5 2342.5 674.304 2365.77" stroke="#D0711F" stroke-width="8" stroke-dasharray="16 16"/>
<path d="M806.61 2666.39C686.001 2644.95 590.807 2751.95 592.856 2873.37" stroke="#D0711F" stroke-width="8" stroke-dasharray="16 16"/>
<path d="M643.605 4245.56C762.933 4273.25 863.575 4171.37 867.857 4050" stroke="#D0711F" stroke-width="8" stroke-dasharray="16 16"/>
<path d="M732.5 5171.5C732.5 5075.5 834 5046 945 5137C1056 5228 1187 5133 1087 5039.5C987 4946 1019 4893 1029 4863.5" stroke="#D0711F" stroke-width="8" stroke-dasharray="16 16"/>
<path d="M1079.5 4351.5C1055 4277.5 1099.08 4210.5 1144 4209C1188.92 4207.5 1269.5 4151.5 1236.5 4024.5" stroke="#D0711F" stroke-width="8" stroke-dasharray="16 16"/>
<path d="M658.5 2240.5C918 1917 1163 2415.5 1247.5 2076.5" stroke="#D0711F" stroke-width="8" stroke-dasharray="16 16"/>
<path d="M635.272 3263.24C738.716 3135.2 923 3228 963 3242.68C1003 3257.37 1037.5 3300.01 1073.5 3266.01C1109.5 3232 1097 3162.5 1038.5 3162.5C980 3162.5 936 3223.5 1010 3361.5" stroke="#D0711F" stroke-width="8" stroke-dasharray="16 16"/>
<path d="M325.007 1844.08C351.882 1892.5 434.939 1954.59 504.882 1966C574.824 1977.41 651.529 1971.32 688.955 1956.91C726.382 1942.5 763.808 1877 726.382 1821.5C688.955 1766 672.261 1692.45 763.685 1708.81" stroke="#D0711F" stroke-width="8" stroke-dasharray="16 16"/>
<path d="M786.5 3602C655 3648.03 576.5 3586 501.5 3574.5C426.5 3563 387.026 3612.92 388.5 3653C389.975 3693.08 435.946 3693.79 457.5 3688C479.055 3682.21 571.581 3689.75 526.413 3770.9" stroke="#D0711F" stroke-width="8" stroke-dasharray="16 16"/>
<path d="M213.5 1099.5C163.5 984.5 235 928.976 272.5 920.5C310 912.024 388 873.999 611 957C677.624 981.798 740.053 1001.73 800.5 1016.48" stroke="#D0711F" stroke-width="8" stroke-dasharray="16 16"/>
<rect x="760" y="592" width="555" height="658" fill="#D9D9D9"/>
<rect x="760" y="1471" width="555" height="610" fill="#D9D9D9"/>
<rect x="125" y="290" width="555" height="411" fill="#D9D9D9"/>
<rect x="125" y="1036" width="555" height="828" fill="#D9D9D9"/>
<rect x="125" y="3737" width="555" height="828" fill="#D9D9D9"/>
<rect x="125" y="2070" width="555" height="541" fill="#D9D9D9"/>
<rect x="760" y="2509" width="555" height="541" fill="#D9D9D9"/>
<rect x="760" y="4342" width="555" height="541" fill="#D9D9D9"/>
<rect x="125" y="2826" width="555" height="722" fill="#D9D9D9"/>
<rect x="760" y="3335" width="555" height="722" fill="#D9D9D9"/>
<path d="M297.04 5270.73H312.722V5332.09C312.693 5337.72 311.5 5342.56 309.142 5346.62C306.784 5350.66 303.489 5353.77 299.256 5355.95C295.051 5358.11 290.151 5359.19 284.554 5359.19C279.44 5359.19 274.838 5358.28 270.747 5356.47C266.685 5354.62 263.46 5351.89 261.074 5348.28C258.688 5344.68 257.494 5340.19 257.494 5334.82H273.219C273.247 5337.18 273.759 5339.21 274.753 5340.91C275.776 5342.62 277.182 5343.92 278.972 5344.83C280.761 5345.74 282.821 5346.2 285.151 5346.2C287.679 5346.2 289.824 5345.67 291.585 5344.62C293.347 5343.54 294.682 5341.95 295.591 5339.85C296.528 5337.74 297.011 5335.16 297.04 5332.09V5270.73ZM357.743 5359.28C351.351 5359.28 345.811 5357.87 341.124 5355.06C336.436 5352.25 332.8 5348.31 330.214 5343.26C327.658 5338.2 326.379 5332.29 326.379 5325.53C326.379 5318.77 327.658 5312.84 330.214 5307.76C332.8 5302.67 336.436 5298.72 341.124 5295.91C345.811 5293.1 351.351 5291.69 357.743 5291.69C364.135 5291.69 369.675 5293.1 374.362 5295.91C379.05 5298.72 382.672 5302.67 385.229 5307.76C387.814 5312.84 389.107 5318.77 389.107 5325.53C389.107 5332.29 387.814 5338.2 385.229 5343.26C382.672 5348.31 379.05 5352.25 374.362 5355.06C369.675 5357.87 364.135 5359.28 357.743 5359.28ZM357.828 5346.92C361.294 5346.92 364.192 5345.97 366.521 5344.07C368.851 5342.13 370.584 5339.55 371.72 5336.31C372.885 5333.07 373.467 5329.46 373.467 5325.49C373.467 5321.48 372.885 5317.86 371.72 5314.62C370.584 5311.35 368.851 5308.75 366.521 5306.82C364.192 5304.89 361.294 5303.92 357.828 5303.92C354.277 5303.92 351.322 5304.89 348.964 5306.82C346.635 5308.75 344.888 5311.35 343.723 5314.62C342.587 5317.86 342.018 5321.48 342.018 5325.49C342.018 5329.46 342.587 5333.07 343.723 5336.31C344.888 5339.55 346.635 5342.13 348.964 5344.07C351.322 5345.97 354.277 5346.92 357.828 5346.92ZM402.2 5358V5292.55H417.626V5358H402.2ZM409.955 5283.26C407.512 5283.26 405.41 5282.45 403.648 5280.83C401.887 5279.18 401.006 5277.2 401.006 5274.9C401.006 5272.57 401.887 5270.6 403.648 5268.98C405.41 5267.33 407.512 5266.51 409.955 5266.51C412.427 5266.51 414.529 5267.33 416.262 5268.98C418.023 5270.6 418.904 5272.57 418.904 5274.9C418.904 5277.2 418.023 5279.18 416.262 5280.83C414.529 5282.45 412.427 5283.26 409.955 5283.26ZM448.915 5319.65V5358H433.489V5292.55H448.233V5303.67H449C450.506 5300 452.906 5297.09 456.202 5294.93C459.526 5292.77 463.631 5291.69 468.517 5291.69C473.034 5291.69 476.969 5292.66 480.321 5294.59C483.702 5296.52 486.315 5299.32 488.162 5302.99C490.037 5306.65 490.96 5311.1 490.932 5316.32V5358H475.506V5318.71C475.506 5314.34 474.369 5310.91 472.097 5308.44C469.852 5305.97 466.741 5304.73 462.764 5304.73C460.065 5304.73 457.665 5305.33 455.562 5306.52C453.489 5307.69 451.855 5309.38 450.662 5311.59C449.497 5313.81 448.915 5316.49 448.915 5319.65ZM569.064 5292.55V5304.48H531.436V5292.55H569.064ZM540.726 5276.86H556.152V5338.31C556.152 5340.39 556.464 5341.98 557.089 5343.09C557.743 5344.16 558.595 5344.9 559.646 5345.3C560.697 5345.7 561.862 5345.9 563.141 5345.9C564.107 5345.9 564.987 5345.83 565.783 5345.68C566.607 5345.54 567.232 5345.41 567.658 5345.3L570.257 5357.36C569.433 5357.64 568.254 5357.96 566.72 5358.3C565.214 5358.64 563.368 5358.84 561.18 5358.89C557.317 5359.01 553.837 5358.43 550.74 5357.15C547.643 5355.84 545.186 5353.82 543.368 5351.1C541.578 5348.37 540.697 5344.96 540.726 5340.87V5276.86ZM598.798 5319.65V5358H583.371V5270.73H598.457V5303.67H599.224C600.758 5299.97 603.13 5297.06 606.34 5294.93C609.579 5292.77 613.698 5291.69 618.698 5291.69C623.244 5291.69 627.207 5292.64 630.587 5294.55C633.968 5296.45 636.582 5299.24 638.428 5302.9C640.303 5306.57 641.241 5311.04 641.241 5316.32V5358H625.815V5318.71C625.815 5314.31 624.678 5310.88 622.406 5308.44C620.161 5305.97 617.008 5304.73 612.945 5304.73C610.218 5304.73 607.775 5305.33 605.616 5306.52C603.485 5307.69 601.809 5309.38 600.587 5311.59C599.394 5313.81 598.798 5316.49 598.798 5319.65ZM685.942 5359.28C679.38 5359.28 673.712 5357.91 668.94 5355.19C664.195 5352.43 660.545 5348.54 657.988 5343.51C655.431 5338.45 654.153 5332.5 654.153 5325.66C654.153 5318.92 655.431 5313.01 657.988 5307.93C660.573 5302.82 664.181 5298.84 668.812 5296C673.442 5293.13 678.883 5291.69 685.133 5291.69C689.167 5291.69 692.974 5292.35 696.553 5293.65C700.161 5294.93 703.343 5296.92 706.099 5299.62C708.883 5302.32 711.07 5305.76 712.661 5309.93C714.252 5314.08 715.048 5319.02 715.048 5324.76V5329.49H661.397V5319.09H700.261C700.232 5316.14 699.593 5313.51 698.343 5311.21C697.093 5308.88 695.346 5307.05 693.102 5305.71C690.886 5304.38 688.3 5303.71 685.346 5303.71C682.192 5303.71 679.423 5304.48 677.036 5306.01C674.65 5307.52 672.789 5309.51 671.454 5311.98C670.147 5314.42 669.479 5317.11 669.451 5320.03V5329.11C669.451 5332.91 670.147 5336.18 671.539 5338.91C672.931 5341.61 674.877 5343.68 677.377 5345.13C679.877 5346.55 682.803 5347.26 686.156 5347.26C688.4 5347.26 690.431 5346.95 692.249 5346.32C694.067 5345.67 695.644 5344.72 696.979 5343.47C698.315 5342.22 699.323 5340.67 700.005 5338.82L714.408 5340.44C713.499 5344.25 711.766 5347.57 709.21 5350.41C706.681 5353.23 703.442 5355.41 699.494 5356.98C695.545 5358.51 691.028 5359.28 685.942 5359.28ZM776.912 5358L752.281 5270.73H769.284L785.009 5334.86H785.818L802.608 5270.73H818.077L834.909 5334.9H835.676L851.401 5270.73H868.403L843.773 5358H828.176L810.705 5296.76H810.023L792.509 5358H776.912ZM890.839 5359.32C886.692 5359.32 882.956 5358.58 879.632 5357.11C876.337 5355.6 873.723 5353.38 871.791 5350.46C869.888 5347.53 868.936 5343.92 868.936 5339.63C868.936 5335.94 869.618 5332.89 870.982 5330.47C872.345 5328.06 874.206 5326.12 876.564 5324.68C878.922 5323.23 881.578 5322.13 884.533 5321.39C887.516 5320.63 890.598 5320.07 893.78 5319.73C897.615 5319.34 900.726 5318.98 903.112 5318.67C905.499 5318.33 907.232 5317.82 908.311 5317.13C909.419 5316.42 909.973 5315.33 909.973 5313.85V5313.6C909.973 5310.39 909.021 5307.9 907.118 5306.14C905.214 5304.38 902.473 5303.5 898.893 5303.5C895.115 5303.5 892.118 5304.32 889.902 5305.97C887.714 5307.62 886.237 5309.56 885.47 5311.81L871.067 5309.76C872.203 5305.78 874.078 5302.46 876.692 5299.79C879.305 5297.09 882.501 5295.07 886.28 5293.74C890.058 5292.38 894.234 5291.69 898.808 5291.69C901.962 5291.69 905.101 5292.06 908.226 5292.8C911.351 5293.54 914.206 5294.76 916.791 5296.47C919.376 5298.14 921.45 5300.43 923.013 5303.33C924.604 5306.22 925.399 5309.85 925.399 5314.19V5358H910.57V5349.01H910.058C909.121 5350.83 907.8 5352.53 906.095 5354.12C904.419 5355.68 902.303 5356.95 899.746 5357.91C897.217 5358.85 894.249 5359.32 890.839 5359.32ZM894.845 5347.99C897.942 5347.99 900.626 5347.37 902.899 5346.15C905.172 5344.9 906.919 5343.26 908.141 5341.21C909.391 5339.16 910.016 5336.93 910.016 5334.52V5326.81C909.533 5327.2 908.709 5327.57 907.544 5327.91C906.408 5328.26 905.129 5328.55 903.709 5328.81C902.288 5329.07 900.882 5329.29 899.49 5329.49C898.098 5329.69 896.891 5329.86 895.868 5330C893.567 5330.32 891.507 5330.83 889.689 5331.54C887.871 5332.25 886.436 5333.24 885.385 5334.52C884.334 5335.77 883.808 5337.39 883.808 5339.38C883.808 5342.22 884.845 5344.36 886.919 5345.81C888.993 5347.26 891.635 5347.99 894.845 5347.99ZM940.911 5358V5292.55H956.337V5358H940.911ZM948.666 5283.26C946.223 5283.26 944.121 5282.45 942.359 5280.83C940.598 5279.18 939.717 5277.2 939.717 5274.9C939.717 5272.57 940.598 5270.6 942.359 5268.98C944.121 5267.33 946.223 5266.51 948.666 5266.51C951.138 5266.51 953.24 5267.33 954.973 5268.98C956.734 5270.6 957.615 5272.57 957.615 5274.9C957.615 5277.2 956.734 5279.18 954.973 5280.83C953.24 5282.45 951.138 5283.26 948.666 5283.26ZM1004.88 5292.55V5304.48H967.256V5292.55H1004.88ZM976.546 5276.86H991.972V5338.31C991.972 5340.39 992.285 5341.98 992.91 5343.09C993.563 5344.16 994.415 5344.9 995.467 5345.3C996.518 5345.7 997.683 5345.9 998.961 5345.9C999.927 5345.9 1000.81 5345.83 1001.6 5345.68C1002.43 5345.54 1003.05 5345.41 1003.48 5345.3L1006.08 5357.36C1005.25 5357.64 1004.07 5357.96 1002.54 5358.3C1001.03 5358.64 999.188 5358.84 997.001 5358.89C993.137 5359.01 989.657 5358.43 986.56 5357.15C983.464 5355.84 981.006 5353.82 979.188 5351.1C977.398 5348.37 976.518 5344.96 976.546 5340.87V5276.86ZM1034.62 5270.73V5358H1019.19V5270.73H1034.62ZM1050.48 5358V5292.55H1065.91V5358H1050.48ZM1058.24 5283.26C1055.79 5283.26 1053.69 5282.45 1051.93 5280.83C1050.17 5279.18 1049.29 5277.2 1049.29 5274.9C1049.29 5272.57 1050.17 5270.6 1051.93 5268.98C1053.69 5267.33 1055.79 5266.51 1058.24 5266.51C1060.71 5266.51 1062.81 5267.33 1064.54 5268.98C1066.3 5270.6 1067.19 5272.57 1067.19 5274.9C1067.19 5277.2 1066.3 5279.18 1064.54 5280.83C1062.81 5282.45 1060.71 5283.26 1058.24 5283.26ZM1133.5 5309.85L1119.44 5311.38C1119.04 5309.96 1118.35 5308.62 1117.35 5307.38C1116.39 5306.12 1115.08 5305.12 1113.43 5304.35C1111.78 5303.58 1109.77 5303.2 1107.38 5303.2C1104.17 5303.2 1101.47 5303.89 1099.28 5305.29C1097.12 5306.68 1096.06 5308.48 1096.09 5310.7C1096.06 5312.6 1096.76 5314.15 1098.18 5315.34C1099.63 5316.54 1102.01 5317.52 1105.34 5318.28L1116.5 5320.67C1122.69 5322.01 1127.3 5324.12 1130.31 5327.02C1133.35 5329.92 1134.88 5333.71 1134.91 5338.4C1134.88 5342.52 1133.67 5346.15 1131.29 5349.31C1128.93 5352.43 1125.65 5354.87 1121.44 5356.64C1117.24 5358.4 1112.41 5359.28 1106.95 5359.28C1098.94 5359.28 1092.49 5357.6 1087.61 5354.25C1082.72 5350.87 1079.81 5346.17 1078.87 5340.14L1093.91 5338.7C1094.6 5341.65 1096.05 5343.88 1098.26 5345.39C1100.48 5346.89 1103.36 5347.64 1106.91 5347.64C1110.58 5347.64 1113.52 5346.89 1115.73 5345.39C1117.98 5343.88 1119.1 5342.02 1119.1 5339.8C1119.1 5337.93 1118.38 5336.38 1116.93 5335.16C1115.51 5333.94 1113.29 5333 1110.28 5332.35L1099.11 5330C1092.84 5328.7 1088.19 5326.49 1085.18 5323.4C1082.17 5320.27 1080.68 5316.32 1080.7 5311.55C1080.68 5307.52 1081.77 5304.02 1083.99 5301.07C1086.23 5298.09 1089.34 5295.78 1093.32 5294.16C1097.32 5292.52 1101.94 5291.69 1107.17 5291.69C1114.84 5291.69 1120.88 5293.33 1125.28 5296.59C1129.71 5299.86 1132.45 5304.28 1133.5 5309.85ZM1180.31 5292.55V5304.48H1142.69V5292.55H1180.31ZM1151.98 5276.86H1167.4V5338.31C1167.4 5340.39 1167.71 5341.98 1168.34 5343.09C1168.99 5344.16 1169.85 5344.9 1170.9 5345.3C1171.95 5345.7 1173.11 5345.9 1174.39 5345.9C1175.36 5345.9 1176.24 5345.83 1177.03 5345.68C1177.86 5345.54 1178.48 5345.41 1178.91 5345.3L1181.51 5357.36C1180.68 5357.64 1179.5 5357.96 1177.97 5358.3C1176.46 5358.64 1174.62 5358.84 1172.43 5358.89C1168.57 5359.01 1165.09 5358.43 1161.99 5357.15C1158.89 5355.84 1156.44 5353.82 1154.62 5351.1C1152.83 5348.37 1151.95 5344.96 1151.98 5340.87V5276.86Z" fill="white"/>
<path d="M712.4 5230.6L704.12 5222.32L723.44 5203L704.12 5183.68L712.4 5175.4L731.72 5194.72L751.04 5175.4L759.32 5183.68L740 5203L759.32 5222.32L751.04 5230.6L731.72 5211.28L712.4 5230.6Z" fill="#D0711F"/>
<rect x="297" y="5434" width="869" height="71" rx="14" fill="#FDFDF7" stroke="#D4A280" stroke-width="4"/>
<rect x="568" y="5542" width="327" height="77" rx="16" fill="#D9854D"/>
<path d="M622.613 5573.85C622.474 5572.55 621.887 5571.53 620.853 5570.81C619.829 5570.08 618.496 5569.72 616.856 5569.72C615.702 5569.72 614.713 5569.89 613.888 5570.24C613.063 5570.59 612.431 5571.06 611.994 5571.66C611.556 5572.26 611.332 5572.94 611.322 5573.7C611.322 5574.34 611.467 5574.89 611.755 5575.36C612.053 5575.83 612.456 5576.22 612.963 5576.55C613.47 5576.87 614.032 5577.14 614.648 5577.36C615.265 5577.58 615.886 5577.76 616.513 5577.91L619.376 5578.62C620.53 5578.89 621.638 5579.26 622.702 5579.71C623.776 5580.17 624.736 5580.75 625.581 5581.44C626.436 5582.14 627.112 5582.98 627.609 5583.96C628.107 5584.95 628.355 5586.1 628.355 5587.42C628.355 5589.21 627.898 5590.79 626.983 5592.15C626.068 5593.5 624.746 5594.56 623.016 5595.33C621.295 5596.08 619.212 5596.46 616.766 5596.46C614.39 5596.46 612.327 5596.09 610.577 5595.36C608.837 5594.62 607.474 5593.55 606.49 5592.14C605.516 5590.73 604.989 5589 604.909 5586.98H610.353C610.433 5588.04 610.761 5588.93 611.337 5589.63C611.914 5590.34 612.665 5590.86 613.589 5591.21C614.524 5591.56 615.568 5591.73 616.722 5591.73C617.925 5591.73 618.979 5591.56 619.884 5591.2C620.798 5590.83 621.514 5590.32 622.031 5589.68C622.548 5589.02 622.812 5588.25 622.822 5587.38C622.812 5586.58 622.578 5585.93 622.121 5585.41C621.663 5584.88 621.022 5584.45 620.197 5584.1C619.381 5583.74 618.427 5583.42 617.333 5583.14L613.858 5582.25C611.342 5581.6 609.354 5580.62 607.892 5579.31C606.44 5577.99 605.714 5576.23 605.714 5574.05C605.714 5572.25 606.202 5570.67 607.176 5569.32C608.161 5567.97 609.498 5566.92 611.188 5566.17C612.879 5565.41 614.793 5565.04 616.93 5565.04C619.098 5565.04 620.997 5565.41 622.628 5566.17C624.268 5566.92 625.556 5567.96 626.491 5569.29C627.425 5570.61 627.908 5572.13 627.938 5573.85H622.613ZM638.822 5565.45V5596H633.288V5565.45H638.822ZM665.277 5575.21C665.028 5574.4 664.685 5573.68 664.248 5573.05C663.82 5572.4 663.303 5571.85 662.696 5571.39C662.1 5570.93 661.414 5570.59 660.638 5570.36C659.863 5570.12 659.017 5570 658.103 5570C656.462 5570 655 5570.42 653.718 5571.24C652.435 5572.07 651.426 5573.28 650.69 5574.88C649.964 5576.47 649.601 5578.41 649.601 5580.7C649.601 5583 649.964 5584.96 650.69 5586.56C651.416 5588.16 652.425 5589.38 653.718 5590.21C655.01 5591.04 656.512 5591.45 658.222 5591.45C659.773 5591.45 661.115 5591.15 662.249 5590.56C663.392 5589.96 664.272 5589.11 664.889 5588.02C665.505 5586.92 665.814 5585.62 665.814 5584.14L667.066 5584.34H658.774V5580.01H671.168V5583.68C671.168 5586.3 670.611 5588.56 669.498 5590.47C668.384 5592.38 666.853 5593.85 664.904 5594.88C662.955 5595.91 660.718 5596.42 658.192 5596.42C655.378 5596.42 652.907 5595.79 650.779 5594.52C648.662 5593.25 647.006 5591.45 645.813 5589.11C644.63 5586.76 644.038 5583.98 644.038 5580.76C644.038 5578.29 644.386 5576.09 645.082 5574.15C645.788 5572.21 646.772 5570.57 648.035 5569.21C649.298 5567.85 650.779 5566.82 652.48 5566.11C654.18 5565.39 656.029 5565.04 658.028 5565.04C659.718 5565.04 661.294 5565.29 662.756 5565.78C664.218 5566.27 665.515 5566.97 666.649 5567.87C667.792 5568.78 668.732 5569.85 669.468 5571.09C670.203 5572.34 670.686 5573.71 670.914 5575.21H665.277ZM701.62 5565.45V5596H696.698L682.306 5575.19H682.052V5596H676.519V5565.45H681.47L695.848 5586.28H696.117V5565.45H701.62ZM718.067 5565.45H724.839L733.907 5587.59H734.265L743.333 5565.45H750.104V5596H744.795V5575.01H744.511L736.07 5595.91H732.102L723.661 5574.97H723.377V5596H718.067V5565.45ZM756.13 5596V5565.45H775.996V5570.09H761.663V5578.39H774.967V5583.02H761.663V5591.36H776.116V5596H756.13ZM811.315 5565.45H816.848V5585.41C816.848 5587.6 816.331 5589.52 815.297 5591.18C814.273 5592.84 812.831 5594.14 810.972 5595.08C809.112 5596 806.94 5596.46 804.454 5596.46C801.958 5596.46 799.781 5596 797.921 5595.08C796.062 5594.14 794.62 5592.84 793.596 5591.18C792.572 5589.52 792.06 5587.6 792.06 5585.41V5565.45H797.593V5584.95C797.593 5586.22 797.871 5587.35 798.428 5588.35C798.995 5589.34 799.79 5590.12 800.815 5590.69C801.839 5591.25 803.052 5591.53 804.454 5591.53C805.856 5591.53 807.069 5591.25 808.093 5590.69C809.127 5590.12 809.923 5589.34 810.479 5588.35C811.036 5587.35 811.315 5586.22 811.315 5584.95V5565.45ZM822.862 5596V5565.45H834.317C836.664 5565.45 838.632 5565.89 840.223 5566.77C841.824 5567.64 843.032 5568.85 843.847 5570.38C844.673 5571.9 845.085 5573.63 845.085 5575.57C845.085 5577.53 844.673 5579.27 843.847 5580.79C843.022 5582.31 841.804 5583.51 840.193 5584.38C838.583 5585.25 836.599 5585.68 834.242 5585.68H826.651V5581.13H833.497C834.869 5581.13 835.992 5580.89 836.867 5580.41C837.742 5579.94 838.389 5579.28 838.806 5578.45C839.234 5577.61 839.448 5576.65 839.448 5575.57C839.448 5574.48 839.234 5573.53 838.806 5572.7C838.389 5571.88 837.737 5571.24 836.852 5570.78C835.977 5570.31 834.849 5570.08 833.467 5570.08H828.396V5596H822.862ZM856.26 5565.45L855.768 5587.02H850.966L850.488 5565.45H856.26ZM853.367 5596.33C852.462 5596.33 851.686 5596.01 851.04 5595.37C850.404 5594.74 850.086 5593.96 850.086 5593.05C850.086 5592.15 850.404 5591.39 851.04 5590.75C851.686 5590.11 852.462 5589.8 853.367 5589.8C854.252 5589.8 855.017 5590.11 855.664 5590.75C856.32 5591.39 856.648 5592.15 856.648 5593.05C856.648 5593.65 856.494 5594.21 856.186 5594.7C855.887 5595.2 855.49 5595.6 854.993 5595.9C854.505 5596.18 853.963 5596.33 853.367 5596.33Z" fill="#FDFDF7"/>
<path d="M594.876 5483V5456.82H611.291V5460.22H598.827V5468.2H610.435V5471.58H598.827V5479.6H611.445V5483H594.876ZM620.083 5471.34V5483H616.261V5463.36H619.93V5466.56H620.173C620.625 5465.52 621.332 5464.68 622.295 5464.05C623.267 5463.42 624.49 5463.11 625.964 5463.11C627.302 5463.11 628.474 5463.39 629.48 5463.95C630.485 5464.51 631.265 5465.33 631.819 5466.43C632.373 5467.53 632.65 5468.89 632.65 5470.51V5483H628.828V5470.97C628.828 5469.55 628.457 5468.43 627.716 5467.63C626.974 5466.82 625.956 5466.42 624.66 5466.42C623.774 5466.42 622.985 5466.61 622.295 5466.99C621.613 5467.38 621.072 5467.94 620.672 5468.68C620.279 5469.41 620.083 5470.3 620.083 5471.34ZM646.943 5463.36V5466.43H636.217V5463.36H646.943ZM639.093 5458.66H642.916V5477.23C642.916 5477.98 643.027 5478.53 643.248 5478.91C643.47 5479.28 643.755 5479.53 644.105 5479.66C644.463 5479.79 644.85 5479.86 645.268 5479.86C645.575 5479.86 645.843 5479.83 646.074 5479.79C646.304 5479.75 646.483 5479.71 646.61 5479.69L647.301 5482.85C647.079 5482.93 646.764 5483.02 646.355 5483.1C645.946 5483.2 645.434 5483.25 644.821 5483.26C643.815 5483.27 642.877 5483.09 642.008 5482.72C641.139 5482.34 640.436 5481.76 639.899 5480.98C639.362 5480.2 639.093 5479.21 639.093 5478.03V5458.66ZM659.423 5483.4C657.489 5483.4 655.822 5482.98 654.425 5482.16C653.036 5481.32 651.962 5480.15 651.203 5478.64C650.453 5477.12 650.078 5475.35 650.078 5473.31C650.078 5471.3 650.453 5469.53 651.203 5467.99C651.962 5466.46 653.018 5465.26 654.374 5464.4C655.737 5463.54 657.331 5463.11 659.155 5463.11C660.263 5463.11 661.337 5463.29 662.376 5463.66C663.416 5464.02 664.349 5464.6 665.176 5465.38C666.003 5466.17 666.655 5467.19 667.132 5468.44C667.609 5469.68 667.848 5471.2 667.848 5472.98V5474.33H652.239V5471.47H664.102C664.102 5470.46 663.898 5469.57 663.489 5468.8C663.08 5468.01 662.504 5467.39 661.763 5466.94C661.03 5466.49 660.169 5466.27 659.18 5466.27C658.107 5466.27 657.169 5466.53 656.368 5467.06C655.575 5467.58 654.962 5468.26 654.527 5469.1C654.101 5469.94 653.888 5470.85 653.888 5471.83V5474.06C653.888 5475.38 654.118 5476.49 654.578 5477.41C655.047 5478.33 655.699 5479.04 656.534 5479.52C657.369 5480 658.345 5480.24 659.462 5480.24C660.186 5480.24 660.847 5480.14 661.443 5479.93C662.04 5479.72 662.555 5479.4 662.99 5478.99C663.425 5478.57 663.757 5478.05 663.987 5477.44L667.605 5478.09C667.315 5479.16 666.795 5480.09 666.045 5480.89C665.304 5481.68 664.371 5482.3 663.246 5482.74C662.129 5483.18 660.855 5483.4 659.423 5483.4ZM672.089 5483V5463.36H675.784V5466.48H675.988C676.346 5465.43 676.977 5464.6 677.88 5463.99C678.792 5463.38 679.824 5463.07 680.974 5463.07C681.213 5463.07 681.494 5463.08 681.818 5463.1C682.15 5463.11 682.41 5463.13 682.598 5463.16V5466.82C682.444 5466.77 682.172 5466.73 681.779 5466.67C681.387 5466.62 680.995 5466.59 680.603 5466.59C679.7 5466.59 678.895 5466.78 678.187 5467.16C677.488 5467.54 676.934 5468.06 676.525 5468.73C676.116 5469.4 675.912 5470.16 675.912 5471.01V5483H672.089ZM697.849 5490.36C697.278 5490.36 696.758 5490.32 696.289 5490.22C695.821 5490.14 695.471 5490.04 695.241 5489.94L696.162 5486.81C696.86 5487 697.483 5487.08 698.028 5487.05C698.574 5487.03 699.055 5486.82 699.473 5486.44C699.899 5486.06 700.274 5485.43 700.598 5484.56L701.071 5483.26L693.886 5463.36H697.977L702.95 5478.6H703.154L708.127 5463.36H712.231L704.139 5485.62C703.764 5486.64 703.287 5487.51 702.707 5488.22C702.127 5488.93 701.437 5489.47 700.636 5489.83C699.835 5490.18 698.906 5490.36 697.849 5490.36ZM723.427 5483.4C721.586 5483.4 719.979 5482.97 718.607 5482.13C717.235 5481.29 716.17 5480.11 715.411 5478.59C714.653 5477.07 714.273 5475.3 714.273 5473.27C714.273 5471.23 714.653 5469.45 715.411 5467.93C716.17 5466.4 717.235 5465.22 718.607 5464.37C719.979 5463.53 721.586 5463.11 723.427 5463.11C725.268 5463.11 726.874 5463.53 728.246 5464.37C729.619 5465.22 730.684 5466.4 731.442 5467.93C732.201 5469.45 732.58 5471.23 732.58 5473.27C732.58 5475.3 732.201 5477.07 731.442 5478.59C730.684 5480.11 729.619 5481.29 728.246 5482.13C726.874 5482.97 725.268 5483.4 723.427 5483.4ZM723.44 5480.19C724.633 5480.19 725.621 5479.87 726.406 5479.24C727.19 5478.61 727.769 5477.77 728.144 5476.72C728.528 5475.67 728.719 5474.52 728.719 5473.26C728.719 5472.01 728.528 5470.86 728.144 5469.81C727.769 5468.75 727.19 5467.9 726.406 5467.26C725.621 5466.62 724.633 5466.3 723.44 5466.3C722.238 5466.3 721.241 5466.62 720.448 5467.26C719.664 5467.9 719.08 5468.75 718.697 5469.81C718.322 5470.86 718.134 5472.01 718.134 5473.26C718.134 5474.52 718.322 5475.67 718.697 5476.72C719.08 5477.77 719.664 5478.61 720.448 5479.24C721.241 5479.87 722.238 5480.19 723.44 5480.19ZM749.286 5474.86V5463.36H753.121V5483H749.363V5479.6H749.158C748.706 5480.65 747.982 5481.52 746.985 5482.22C745.996 5482.91 744.765 5483.26 743.29 5483.26C742.029 5483.26 740.912 5482.98 739.941 5482.42C738.978 5481.86 738.219 5481.03 737.665 5479.93C737.12 5478.83 736.847 5477.47 736.847 5475.85V5463.36H740.669V5475.39C740.669 5476.73 741.04 5477.8 741.782 5478.59C742.523 5479.38 743.486 5479.78 744.671 5479.78C745.387 5479.78 746.098 5479.6 746.806 5479.24C747.522 5478.88 748.114 5478.34 748.583 5477.62C749.06 5476.89 749.294 5475.97 749.286 5474.86ZM758.257 5483V5463.36H761.952V5466.48H762.156C762.514 5465.43 763.145 5464.6 764.048 5463.99C764.96 5463.38 765.991 5463.07 767.142 5463.07C767.381 5463.07 767.662 5463.08 767.986 5463.1C768.318 5463.11 768.578 5463.13 768.766 5463.16V5466.82C768.612 5466.77 768.339 5466.73 767.947 5466.67C767.555 5466.62 767.163 5466.59 766.771 5466.59C765.868 5466.59 765.063 5466.78 764.355 5467.16C763.656 5467.54 763.102 5468.06 762.693 5468.73C762.284 5469.4 762.08 5470.16 762.08 5471.01V5483H758.257ZM790.064 5483.4C788.129 5483.4 786.463 5482.98 785.065 5482.16C783.676 5481.32 782.602 5480.15 781.844 5478.64C781.094 5477.12 780.719 5475.35 780.719 5473.31C780.719 5471.3 781.094 5469.53 781.844 5467.99C782.602 5466.46 783.659 5465.26 785.014 5464.4C786.378 5463.54 787.972 5463.11 789.795 5463.11C790.903 5463.11 791.977 5463.29 793.017 5463.66C794.057 5464.02 794.99 5464.6 795.817 5465.38C796.643 5466.17 797.295 5467.19 797.773 5468.44C798.25 5469.68 798.489 5471.2 798.489 5472.98V5474.33H782.879V5471.47H794.743C794.743 5470.46 794.538 5469.57 794.129 5468.8C793.72 5468.01 793.145 5467.39 792.403 5466.94C791.67 5466.49 790.81 5466.27 789.821 5466.27C788.747 5466.27 787.81 5466.53 787.009 5467.06C786.216 5467.58 785.602 5468.26 785.168 5469.1C784.741 5469.94 784.528 5470.85 784.528 5471.83V5474.06C784.528 5475.38 784.759 5476.49 785.219 5477.41C785.688 5478.33 786.339 5479.04 787.175 5479.52C788.01 5480 788.986 5480.24 790.102 5480.24C790.827 5480.24 791.487 5480.14 792.084 5479.93C792.68 5479.72 793.196 5479.4 793.631 5478.99C794.065 5478.57 794.398 5478.05 794.628 5477.44L798.246 5478.09C797.956 5479.16 797.436 5480.09 796.686 5480.89C795.945 5481.68 795.011 5482.3 793.886 5482.74C792.77 5483.18 791.496 5483.4 790.064 5483.4ZM802.73 5483V5463.36H806.399V5466.56H806.642C807.051 5465.48 807.72 5464.63 808.649 5464.03C809.578 5463.41 810.69 5463.11 811.985 5463.11C813.298 5463.11 814.397 5463.41 815.284 5464.03C816.179 5464.64 816.839 5465.49 817.265 5466.56H817.47C817.939 5465.51 818.684 5464.68 819.707 5464.05C820.73 5463.42 821.949 5463.11 823.363 5463.11C825.145 5463.11 826.598 5463.67 827.723 5464.78C828.856 5465.9 829.423 5467.58 829.423 5469.83V5483H825.6V5470.19C825.6 5468.86 825.238 5467.9 824.514 5467.3C823.789 5466.7 822.924 5466.41 821.919 5466.41C820.674 5466.41 819.707 5466.79 819.017 5467.56C818.326 5468.32 817.981 5469.29 817.981 5470.48V5483H814.172V5469.95C814.172 5468.88 813.839 5468.03 813.174 5467.38C812.51 5466.73 811.645 5466.41 810.579 5466.41C809.855 5466.41 809.186 5466.6 808.572 5466.98C807.967 5467.36 807.477 5467.88 807.102 5468.55C806.735 5469.23 806.552 5470.01 806.552 5470.89V5483H802.73ZM840.261 5483.43C839.016 5483.43 837.891 5483.2 836.886 5482.74C835.88 5482.28 835.083 5481.6 834.495 5480.71C833.915 5479.83 833.626 5478.74 833.626 5477.45C833.626 5476.34 833.839 5475.43 834.265 5474.72C834.691 5474 835.266 5473.43 835.991 5473.02C836.715 5472.6 837.525 5472.28 838.42 5472.07C839.315 5471.86 840.227 5471.69 841.156 5471.58C842.332 5471.45 843.286 5471.34 844.019 5471.25C844.752 5471.16 845.285 5471.01 845.617 5470.8C845.95 5470.6 846.116 5470.27 846.116 5469.81V5469.72C846.116 5468.6 845.8 5467.74 845.17 5467.12C844.548 5466.51 843.619 5466.2 842.383 5466.2C841.096 5466.2 840.082 5466.49 839.34 5467.06C838.607 5467.62 838.1 5468.25 837.819 5468.94L834.227 5468.12C834.653 5466.93 835.275 5465.96 836.093 5465.23C836.92 5464.49 837.87 5463.95 838.944 5463.62C840.018 5463.28 841.147 5463.11 842.332 5463.11C843.116 5463.11 843.947 5463.2 844.825 5463.39C845.711 5463.57 846.538 5463.9 847.305 5464.39C848.08 5464.87 848.715 5465.57 849.21 5466.47C849.704 5467.37 849.951 5468.53 849.951 5469.96V5483H846.218V5480.32H846.065C845.817 5480.81 845.447 5481.3 844.952 5481.77C844.458 5482.25 843.823 5482.65 843.048 5482.96C842.272 5483.28 841.343 5483.43 840.261 5483.43ZM841.092 5480.37C842.148 5480.37 843.052 5480.16 843.802 5479.74C844.56 5479.32 845.136 5478.78 845.528 5478.1C845.928 5477.42 846.129 5476.69 846.129 5475.92V5473.39C845.992 5473.52 845.728 5473.65 845.336 5473.77C844.952 5473.88 844.513 5473.98 844.019 5474.06C843.525 5474.14 843.043 5474.21 842.575 5474.28C842.106 5474.34 841.714 5474.39 841.398 5474.43C840.657 5474.53 839.979 5474.69 839.366 5474.91C838.761 5475.13 838.275 5475.45 837.908 5475.87C837.55 5476.28 837.371 5476.82 837.371 5477.5C837.371 5478.45 837.721 5479.16 838.42 5479.65C839.119 5480.13 840.009 5480.37 841.092 5480.37ZM855.042 5483V5463.36H858.865V5483H855.042ZM856.973 5460.33C856.308 5460.33 855.737 5460.11 855.26 5459.67C854.791 5459.22 854.556 5458.68 854.556 5458.06C854.556 5457.43 854.791 5456.89 855.26 5456.45C855.737 5456 856.308 5455.77 856.973 5455.77C857.637 5455.77 858.204 5456 858.673 5456.45C859.15 5456.89 859.389 5457.43 859.389 5458.06C859.389 5458.68 859.15 5459.22 858.673 5459.67C858.204 5460.11 857.637 5460.33 856.973 5460.33ZM867.83 5456.82V5483H864.007V5456.82H867.83Z" fill="#999999"/>
</g>
<defs>
<clipPath id="clip0_2_2">
<rect width="1440" height="5737" fill="white"/>
</clipPath>
</defs>
</svg>
